<?xml version="1.0" encoding="UTF-8" standalone="no"?>
<!-- Uploaded to: SVG Repo, www.svgrepo.com, Generator: SVG Repo Mixer Tools -->

<svg
   fill="#000000"
   version="1.1"
   id="Capa_1"
   width="800px"
   height="800px"
   viewBox="0 0 311.541 311.541"
   xml:space="preserve"
   sodipodi:docname="user_icon_admin.svg"
   inkscape:version="1.4 (86a8ad7, 2024-10-11)"
   xmlns:inkscape="http://www.inkscape.org/namespaces/inkscape"
   xmlns:sodipodi="http://sodipodi.sourceforge.net/DTD/sodipodi-0.dtd"
   xmlns="http://www.w3.org/2000/svg"
   xmlns:svg="http://www.w3.org/2000/svg"><defs
   id="defs2" /><sodipodi:namedview
   id="namedview2"
   pagecolor="#505050"
   bordercolor="#eeeeee"
   borderopacity="1"
   inkscape:showpageshadow="0"
   inkscape:pageopacity="0"
   inkscape:pagecheckerboard="0"
   inkscape:deskcolor="#505050"
   inkscape:zoom="1.01875"
   inkscape:cx="397.05521"
   inkscape:cy="401.96319"
   inkscape:window-width="1920"
   inkscape:window-height="1017"
   inkscape:window-x="-8"
   inkscape:window-y="-8"
   inkscape:window-maximized="1"
   inkscape:current-layer="Capa_1" />
<g
   id="g2">
	<g
   id="g1">
		<path
   d="M155.771,26.331C69.74,26.331,0,96.071,0,182.102c0,37.488,13.25,71.883,35.314,98.761    c3.404-27.256,30.627-50.308,68.8-61.225c13.946,12.994,31.96,20.878,51.656,20.878c19.233,0,36.894-7.487,50.698-19.936    c38.503,11.871,65.141,36.27,66.017,64.63c24.284-27.472,39.056-63.555,39.056-103.108    C311.541,96.071,241.801,26.331,155.771,26.331z M155.771,222.069c-9.944,0-19.314-2.732-27.634-7.464    c-20.05-11.409-33.855-34.756-33.855-61.711c0-38.143,27.583-69.176,61.489-69.176c33.909,0,61.489,31.033,61.489,69.176    c0,27.369-14.237,51.004-34.786,62.215C174.379,219.523,165.346,222.069,155.771,222.069z"
   id="path1" />
	</g>
</g>
<path
   style="fill:#d40000;stroke-width:0.981595"
   d="m 700.03684,726.87117 c -0.29051,-1.88957 -0.98816,-6.55674 -1.55033,-10.37147 -7.08793,-48.09718 -47.49486,-95.03486 -108.77801,-126.35919 -16.32627,-8.34503 -31.76886,-14.88613 -48.28755,-20.45344 l -11.21708,-3.78052 -3.01605,2.45768 c -17.14184,13.9683 -27.11703,20.62146 -42.27984,28.19939 -27.5329,13.76014 -55.08157,20.3689 -84.90798,20.3689 -44.64822,0 -87.96241,-16.06167 -123.46277,-45.78217 -4.70898,-3.94229 -9.22435,-7.17942 -10.03416,-7.19363 -2.45745,-0.0431 -32.29094,10.342 -43.6613,15.19857 -36.22989,15.47473 -64.64316,34.02548 -87.87244,57.3711 -23.23509,23.35144 -37.716029,48.55868 -43.045535,74.93013 l -1.744964,8.63442 -9.381333,-12.5608 C 37.054472,648.96191 11.37541,584.38679 2.8084231,511.41104 0.37627691,490.69341 0.36834778,444.52866 2.7934181,424.04908 14.061113,328.89405 55.954817,244.11213 123.74763,179.26934 187.52806,118.26433 266.19154,81.390291 355.82822,70.479989 c 20.02112,-2.43691 68.2987,-2.438564 88.34356,-0.003 83.92018,10.196665 158.10359,43.131771 219.8773,97.618611 74.95589,66.11403 121.20471,155.01288 133.15751,255.95351 2.44172,20.62027 2.43727,66.88572 -0.008,86.86137 -6.94492,56.72515 -22.75298,105.78544 -49.16025,152.56872 -11.87155,21.03172 -30.75008,48.09926 -43.52875,62.4104 l -3.94417,4.41718 z M 425.52147,568.31059 c 29.38709,-5.65734 56.88471,-20.39304 78.9135,-42.28897 26.36166,-26.20266 43.50952,-59.30229 50.78225,-98.02239 2.56907,-13.67774 3.56502,-43.14628 1.92855,-57.0625 -8.35668,-71.06338 -51.8739,-128.8988 -112.14924,-149.04902 -71.36859,-23.85873 -147.80067,11.71037 -183.98663,85.62163 -13.8111,28.20972 -19.75228,57.12785 -18.77858,91.40285 0.75098,26.43476 4.8867,46.21181 14.49364,69.30867 22.96411,55.20999 71.17771,94.10671 125.8063,101.49525 9.71255,1.31363 32.78372,0.55935 42.99021,-1.40552 z"
   id="path2"
   transform="scale(0.38942625)" /></svg>
